<svg viewBox="0 0 50 24" fill="none" xmlns="http://www.w3.org/2000/svg">
<path fill-rule="evenodd" clip-rule="evenodd" d="M18.3506 23.2531C18.8605 23.6966 20.8672 23.7265 21.5677 23.7265C26.7814 23.7265 29.2565 20.8945 31.0444 16.451C31.3037 15.8065 31.5733 15.1058 31.8234 14.3903C32.6563 12.0071 33.3272 8.6863 35.9472 7.3447C39.3081 5.6237 43.8984 8.1952 43.8984 12.6495C43.8984 17.228 38.5358 20.049 34.6774 17.1419C34.3463 16.8925 34.1797 16.5449 33.7739 16.4365C32.8705 18.3203 33.2983 18.3166 31.5444 20.6437C31.3663 20.88 31.2629 20.9634 31.1245 21.1702C31.5355 21.7843 33.2704 22.6348 34.0035 22.9286C37.1012 24.1701 39.8723 23.9142 42.8715 22.699C44.0388 22.2261 45.2338 21.3004 46.0984 20.4365C47.1346 19.4011 47.6746 18.5591 48.347 17.1953C49.759 14.3315 49.6076 10.9488 48.401 8.0497C48.135 7.4106 47.781 6.8231 47.4196 6.2861C47.2226 5.9935 47.0402 5.7388 46.8073 5.4786C44.7958 3.2311 42.1694 1.3833 38.2211 1.3833C31.6702 1.3833 28.7186 6.0714 27.3963 11.3808C27.0295 12.8536 26.8201 14.1724 26.3579 15.5489C25.8944 16.9291 25.4052 18.0062 24.6916 19.0887C23.1253 21.4645 21.1175 22.6081 18.3506 23.2531V23.2531Z" fill="currentColor"/>
<path fill-rule="evenodd" clip-rule="evenodd" d="M0.845604 11.04V12.0815C0.845604 16.0717 4.005 20.3378 7.1976 21.6312C9.4749 22.5538 10.0632 22.685 12.5787 22.685C14.7097 22.685 16.7555 21.8443 18.2579 20.6988C18.9444 20.1753 19.0808 19.9433 19.557 19.4424C20.7793 18.1564 21.7056 16.1585 22.2658 14.4842C22.7581 13.0131 22.9745 11.9106 23.2938 10.4002C23.8379 7.8261 24.9623 5.467 26.653 3.5364L28.0579 2.3859C28.7881 1.8787 30.6723 0.934703 31.7868 0.909903V0.720503C31.1072 0.663903 30.6294 0.436503 29.7998 0.436503C27.7406 0.436503 26.4406 0.330103 24.4721 1.165C20.7256 2.7538 19.2048 7.231 17.9838 10.8624C17.0184 13.7337 15.9239 17.2886 11.8217 17.2886C11.0754 17.2886 10.1452 17.012 9.6122 16.7537C8.6331 16.2792 7.9491 15.7463 7.3348 14.8668C4.504 10.8139 7.7379 5.8329 11.6325 5.8329C13.0305 5.8329 13.4233 5.8053 14.7564 6.4942C15.6374 6.9494 15.9644 7.459 16.3635 7.7264C16.5855 7.3068 16.6539 6.885 16.8677 6.4321C16.9924 6.1679 17.0336 6.0607 17.16 5.7778C17.6291 4.7278 18.9699 3.0592 19.0129 2.898C18.2936 1.8232 14.6623 0.436503 12.9572 0.436503C10.1386 0.436503 8.8126 0.477803 6.2428 1.955L4.702 3.0642C4.4602 3.2792 4.2725 3.493 4.0391 3.7264C2.2316 5.5345 0.845604 8.3349 0.845604 11.04V11.04Z" fill="black"/>
</svg>
